HIERARCHY
ROOT Hips
{
  OFFSET 6.63996 87.0585 -104.547
  CHANNELS 6 Xposition Yposition Zposition Zrotation Xrotation Yrotation
  JOINT LeftUpLeg
  {
    OFFSET 0 11.9945 0
    CHANNELS 3 Zrotation Xrotation Yrotation
    JOINT LeftLeg
    {
      OFFSET 0 0 -41.4872
      CHANNELS 3 Zrotation Xrotation Yrotation
      JOINT LeftFoot
      {
        OFFSET 0 0 -39.7538
        CHANNELS 3 Zrotation Xrotation Yrotation
        JOINT LeftToe
        {
          OFFSET 15.4382 0 0
          CHANNELS 3 Zrotation Xrotation Yrotation
          End Site
          {
            OFFSET 0 0 0
          }
        }
      }
    }
  }
  JOINT RightUpLeg
  {
    OFFSET 0 -11.9945 0
    CHANNELS 3 Zrotation Xrotation Yrotation
    JOINT RightLeg
    {
      OFFSET 0 0 -41.4872
      CHANNELS 3 Zrotation Xrotation Yrotation
      JOINT RightFoot
      {
        OFFSET 0 0 -39.7538
        CHANNELS 3 Zrotation Xrotation Yrotation
        JOINT RightToe
        {
          OFFSET 15.4382 0 0
          CHANNELS 3 Zrotation Xrotation Yrotation
          End Site
          {
            OFFSET 0 0 0
          }
        }
      }
    }
  }
  JOINT Spine
  {
    OFFSET 3.51585 -1.09699 9.96018
    CHANNELS 3 Zrotation Xrotation Yrotation
    JOINT Head
    {
      OFFSET 0.306387 -2.54062 48.4624
      CHANNELS 3 Zrotation Xrotation Yrotation
      End Site
      {
        OFFSET 0 0 0
      }
    }
    JOINT LeftShoulder
    {
      OFFSET 0 0 42.6193
      CHANNELS 3 Zrotation Xrotation Yrotation
      JOINT LeftArm
      {
        OFFSET 0 19.157 -2.10407
        CHANNELS 3 Zrotation Xrotation Yrotation
        JOINT LeftForeArm
        {
          OFFSET 0 0 -26.2788
          CHANNELS 3 Zrotation Xrotation Yrotation
          JOINT LeftHand
          {
            OFFSET 0 0 -26.6372
            CHANNELS 3 Zrotation Xrotation Yrotation
            End Site
            {
              OFFSET 0 0 0
            }
          }
        }
      }
    }
    JOINT RightShoulder
    {
      OFFSET 0 0 42.6193
      CHANNELS 3 Zrotation Xrotation Yrotation
      JOINT RightArm
      {
        OFFSET 0 -19.157 -2.10407
        CHANNELS 3 Zrotation Xrotation Yrotation
        JOINT RightForeArm
        {
          OFFSET 0 0 -26.2788
          CHANNELS 3 Zrotation Xrotation Yrotation
          JOINT RightHand
          {
            OFFSET 0 0 -26.6372
            CHANNELS 3 Zrotation Xrotation Yrotation
            End Site
            {
              OFFSET 0 0 0
            }
          }
        }
      }
    }
  }
}
MOTION
Frames:	12
Frame Time:	0.0333333
6.64263 87.0573 -104.537 -94.2213 4.18015 -83.1936 0.358489 5.13459 -22.7569 5.38978e-015 -2.18663e-015 12.8098 -1.52586 -0.538276 19.4269 -4.95457e-015 8.74653e-015 -30.9402 -2.45762 8.38149 0.993483 1.65587e-016 -1.39149e-015 6.78628 -7.16607 -0.979509 7.74279 -1.95764e-015 1.43125e-014 -42.6195 -1.60332 2.96706 -17.8709 9.05925 1.07564 13.8405 9.05815 0.778745 -0.124144 87.1923 -0.232244 -26.0905 -104.256 -36.7314 -8.64079 6.70472e-006 24.6031 -24.1104 17.5531 -0.320965 0.101523 -16.7907 15.3714 -30.1774 -40.354 38.1827 -36.0371 -3.91333e-005 -11.0317 179.171 
6.65395 87.0548 -104.507 -94.2228 4.21202 -83.203 0.450755 5.10434 -22.7082 2.94179e-015 -2.18663e-015 12.7757 -1.58434 -0.557863 19.3923 -6.11995e-015 8.34896e-015 -30.9402 -2.48661 8.36087 1.03279 2.12374e-016 -1.78906e-015 6.76973 -7.08109 -0.969968 7.76022 -4.7717e-015 1.35174e-014 -43.1178 -1.57137 2.96534 -17.8478 9.05315 1.13566 13.7852 9.05461 0.727143 -0.115879 87.5227 -0.26552 -26.219 -104.729 -36.8419 -8.95783 6.25991e-005 24.6196 -24.0838 17.5559 -0.32082 0.10149 -16.785 15.4163 -30.1689 -40.4079 38.2368 -36.0177 -0.000115727 -11.1056 179.449 
6.6622 87.0589 -104.506 -94.2126 4.22115 -83.2289 0.48633 5.08078 -22.6509 4.56963e-015 -2.18663e-015 12.7259 -1.58374 -0.558734 19.4275 -6.57036e-015 9.14409e-015 -30.9402 -2.49091 8.34559 1.07652 1.74239e-015 -1.19271e-015 6.74388 -7.05171 -0.969276 7.78699 -8.43646e-015 1.19271e-014 -43.1596 -1.51331 2.93548 -17.8472 9.16732 1.26157 13.813 9.38509 0.689168 -0.113785 86.8057 -0.376767 -26.205 -104.072 -36.8272 -8.54592 2.60541e-005 24.5608 -24.0225 17.5668 -0.327715 0.103742 -16.8129 15.4165 -30.0701 -40.4475 38.3586 -36.0528 -4.00944e-006 -11.1085 179.57 
6.65971 87.0618 -104.489 -94.2023 4.2325 -83.2529 0.409484 5.08942 -22.5998 4.65831e-015 -2.5842e-015 12.7085 -1.51563 -0.534439 19.4169 -4.95457e-015 8.74653e-015 -30.9402 -2.53998 8.32427 1.11448 3.64965e-015 -3.77691e-015 6.74825 -6.98679 -0.959311 7.77904 -1.13644e-014 1.11319e-014 -42.9159 -1.51948 2.90898 -17.8225 9.29518 1.33162 13.8524 9.36086 0.593419 -0.0983241 86.9783 -0.410915 -26.3802 -103.954 -36.9631 -8.49991 -0.000154154 24.6111 -24.0575 17.6166 -0.358425 0.113842 -16.8249 15.486 -30.0502 -40.3919 38.3372 -36.0936 -2.25728e-005 -11.0702 179.58 
6.66191 87.0577 -104.459 -94.1952 4.23827 -83.2718 0.304802 5.11223 -22.5682 4.61532e-015 -2.38542e-015 12.7392 -1.45764 -0.511894 19.3467 -5.52415e-015 9.34288e-015 -30.9402 -2.61757 8.30569 1.15719 1.81344e-015 -1.78906e-015 6.75887 -6.90404 -0.943421 7.74354 -4.8359e-015 1.35174e-014 -42.7113 -1.58684 2.88781 -17.7888 9.41152 1.41141 13.9289 9.07743 0.503696 -0.0806505 87.8243 -0.348036 -26.6415 -104.454 -37.1899 -8.85609 -7.62398e-005 24.7366 -24.109 17.6587 -0.374878 0.11938 -16.8236 15.6043 -30.1213 -40.1938 38.102 -36.1423 -8.05155e-005 -10.9941 179.511 
6.63663 87.0508 -104.436 -94.1858 4.19792 -83.2975 0.397343 5.0876 -22.5673 2.94309e-015 -2.18663e-015 12.8018 -1.57375 -0.55148 19.3053 -6.00079e-015 8.54774e-015 -30.9402 -2.62175 8.3187 1.23588 3.29559e-015 -7.95139e-016 6.68824 -6.93005 -0.946434 7.7388 2.55161e-016 1.19271e-014 -43.0242 -1.61907 2.84447 -17.8234 9.57008 1.75328 14.1651 9.41426 0.618996 -0.10261 86.9732 -0.302701 -26.4514 -104.046 -37.1126 -8.58416 -2.70852e-005 24.685 -23.8862 17.5689 -0.284154 0.0899684 -16.8645 15.6171 -30.137 -39.8395 37.7225 -36.2534 -1.12049e-005 -10.8581 179.382 
6.632 87.0631 -104.44 -94.193 4.16872 -83.2913 0.446981 5.0752 -22.5457 1.39848e-015 -2.5842e-015 12.7202 -1.59804 -0.562606 19.3889 -6.80868e-015 8.74653e-015 -30.9402 -2.56936 8.3404 1.22459 5.01298e-015 -1.78906e-015 6.6801 -7.04325 -0.96698 7.77787 -1.92935e-015 1.19271e-014 -42.972 -1.63486 2.76859 -17.7095 10.1029 2.29366 13.9317 9.13385 0.689813 -0.110758 87.6496 -0.437027 -26.433 -104.654 -37.1059 -8.96514 -2.48237e-005 24.8126 -23.9148 17.6227 -0.276387 0.087784 -16.8409 15.5843 -30.3298 -40.0262 37.7999 -36.1204 -1.00492e-005 -10.8487 179.275 
6.64629 87.0602 -104.442 -94.1888 4.14484 -83.2882 0.406134 5.07318 -22.5389 3.84272e-015 -2.5842e-015 12.7004 -1.61123 -0.566178 19.3565 -4.47794e-015 9.54166e-015 -30.9402 -2.63979 8.33362 1.24125 1.85654e-015 -2.18663e-015 6.66322 -7.01638 -0.963652 7.78115 -1.20534e-014 1.27222e-014 -43.0653 -1.62044 2.72539 -17.6479 10.0593 2.23388 13.8251 8.98774 0.657393 -0.103989 87.9166 -0.519586 -26.4906 -105.58 -37.0614 -9.53944 1.99653e-005 24.8585 -23.7132 17.6211 -0.308319 0.0979007 -16.8434 15.6393 -30.4329 -40.1001 37.7822 -36.0381 -2.30314e-005 -10.8307 179.203 
6.64353 87.0604 -104.418 -94.1753 4.15537 -83.2858 0.297242 5.09072 -22.516 2.12296e-015 -2.18663e-015 12.7004 -1.54782 -0.542265 19.302 -3.69626e-015 7.7526e-015 -30.9402 -2.6879 8.3134 1.26431 -1.43896e-015 -1.39149e-015 6.64325 -6.96289 -0.955408 7.77457 -6.94606e-015 1.35174e-014 -43.1525 -1.59133 2.71392 -17.6374 9.95124 2.00931 13.7489 9.00185 0.625012 -0.09901 88.0091 -0.522114 -26.5529 -105.736 -37.1186 -9.64977 -0.000341383 24.8893 -23.8821 17.5658 -0.349959 0.110741 -16.7857 15.7017 -30.4744 -40.0832 37.7126 -36.0115 0.00135235 -10.8292 179.185 
6.64245 87.0606 -104.396 -94.1612 4.18936 -83.2834 0.192576 5.11639 -22.4824 2.21252e-015 -2.5842e-015 12.6997 -1.45854 -0.509981 19.2684 -5.76247e-015 8.94531e-015 -30.9402 -2.65357 8.29431 1.27777 1.99389e-015 -3.37934e-015 6.63182 -6.94551 -0.954375 7.78565 -6.99927e-015 1.11319e-014 -43.1937 -1.5499 2.71707 -17.6487 9.97762 1.84913 13.6782 9.08513 0.617087 -0.0986844 88.0451 -0.486112 -26.5892 -105.225 -37.2363 -9.35203 7.09527e-006 24.9304 -24.3257 17.4899 -0.396668 0.12498 -16.6839 15.7469 -30.4794 -40.0605 37.6685 -36.0063 0.00273638 -10.829 179.2 
6.63926 87.0608 -104.396 -94.1622 4.19575 -83.2817 0.214327 5.11816 -22.4792 4.52333e-015 -1.98785e-015 12.6991 -1.51048 -0.527539 19.2479 -4.5971e-015 9.34288e-015 -30.9402 -2.56176 8.29047 1.27117 1.15819e-016 -9.93923e-016 6.64653 -6.9763 -0.965849 7.8435 -1.20485e-014 1.27222e-014 -43.2607 -1.48535 2.70158 -17.6242 10.0215 1.77567 13.6582 9.02967 0.579173 -0.0920346 88.0257 -0.522555 -26.6084 -105.343 -37.1892 -9.41688 -1.21037e-005 24.9711 -24.2506 17.4578 -0.469168 0.147546 -16.6562 15.8069 -30.4698 -40.1794 37.7622 -35.9492 -3.8877e-006 -10.7742 179.189 
6.63428 87.061 -104.39 -94.1599 4.22084 -83.279 0.278878 5.09841 -22.4889 5.42773e-015 -2.38542e-015 12.6947 -1.50795 -0.526725 19.2511 -6.80868e-015 8.74653e-015 -30.9402 -2.51757 8.29471 1.26167 1.83235e-015 -1.98785e-015 6.63815 -7.01881 -0.967388 7.8084 -1.06121e-014 1.19271e-014 -43.291 -1.45489 2.68848 -17.5933 10.1263 1.68792 13.5404 9.08314 0.603403 -0.0964605 87.9672 -0.564778 -26.5685 -105.689 -37.1374 -9.62453 1.0841e-005 24.9909 -24.1492 17.5266 -0.451213 0.142475 -16.7194 15.7699 -30.4965 -40.0103 37.6603 -36.0498 -9.81013e-006 -10.7872 179.221 
